# xmcd
#
# Track frame offsets:
# 150
# 27571
# 50998
# 77519
# 98522
# 119243
# 138613
# 158277
# 180728
# 197682
# 220495
# 241510
#
# Disc length: 3535 seconds
#
#
# Revision: 0
# Processed by: cddbd v1.5.2PL0 Copyright (c) Steve Scherf et al.
# Submitted via: FreeRIP 2.96 
#
DISCID=a40dcd0c
DTITLE=the gasman - audiogold
DYEAR=2007
DGENRE=Acid
TTITLE0=crucible (remix)
TTITLE1=IEC II
TTITLE2=(mx90)
TTITLE3=sharp-GF 4646
TTITLE4=pyrex
TTITLE5=squash
TTITLE6=(rev)
TTITLE7=personics
TTITLE8=battery man
TTITLE9=memorex
TTITLE10=molten
TTITLE11=trampoline4
EXTD=
EXTT0=
EXTT1=
EXTT2=
EXTT3=
EXTT4=
EXTT5=
EXTT6=
EXTT7=
EXTT8=
EXTT9=
EXTT10=
EXTT11=
PLAYORDER=
